# xmcd
#
# Track frame offsets:
#  150
#  23855
#  58277
#
# Disc length: 1033 seconds
#
# Revision: 0
# Processed by: cddbd v1.5.1PL2 Copyright (c) Steve Scherf et al.
# Submitted via: Collectorz.com_Music_Collector 6.9
#
DISCID=23040703
DTITLE=Diana Ross - Workin' Over Time
DYEAR=1989
DGENRE=Soul/R&B
TTITLE0=Workin' Over Time (Radio Edit)
TTITLE1=Workin' Over Time (Ext. Mix)
TTITLE2=Workin' Over Time (7" Mix)
EXTD=
EXTT0=
EXTT1=
EXTT2=
PLAYORDER=
